<svg width="20" height="20" viewBox="0 0 20 20" fill="none" xmlns="http://www.w3.org/2000/svg">
<g id="Frame">
<g id="Group">
<path id="Vector" fill-rule="evenodd" clip-rule="evenodd" d="M1.68044 8.91762C6.15433 6.97467 9.13267 5.68362 10.6282 5.05728C14.8848 3.2805 15.7796 2.97372 16.3548 2.96094C16.4827 2.96094 16.7639 2.9865 16.9556 3.13989C17.109 3.26772 17.1473 3.43389 17.1729 3.56172C17.1985 3.68954 17.224 3.95798 17.1985 4.1625C16.9684 6.59119 15.9713 12.484 15.46 15.1939C15.2427 16.3443 14.8209 16.7278 14.4119 16.7661C13.5171 16.8428 12.8396 16.1781 11.9832 15.6157C10.6282 14.7337 9.87406 14.184 8.55746 13.3148C7.03633 12.3178 8.02059 11.7681 8.8898 10.8733C9.11989 10.6433 13.0441 7.06414 13.1208 6.74458C13.1336 6.70623 13.1336 6.55284 13.0441 6.47614C12.9547 6.39945 12.8268 6.42501 12.7246 6.45058C12.584 6.47614 10.4365 7.90779 6.2566 10.7327C5.64303 11.1546 5.09338 11.3591 4.59486 11.3463C4.04521 11.3335 2.99704 11.0395 2.20452 10.7839C1.24583 10.4771 0.478874 10.3109 0.542787 9.77405C0.581135 9.49283 0.964612 9.21161 1.68044 8.91762Z" fill="#292929"/>
</g>
</g>
</svg>
