<svg width="20" height="20" viewBox="0 0 20 20" fill="none" xmlns="http://www.w3.org/2000/svg">
<g id="Frame">
<path id="Vector" d="M11.3485 15.7619C4.85697 15.7619 1.15428 11.3468 1 4H4.25172C4.35853 9.39234 6.75578 11.6764 8.65459 12.1474V4H11.7164V8.6506C13.5915 8.45045 15.5615 6.33119 16.2261 4H19.2879C19.0375 5.20902 18.5383 6.35377 17.8216 7.36265C17.1048 8.37152 16.1859 9.22282 15.1224 9.86329C16.3096 10.4485 17.3581 11.2768 18.1989 12.2936C19.0397 13.3104 19.6535 14.4925 20 15.7619H16.6296C16.3186 14.6593 15.6865 13.6723 14.8125 12.9246C13.9385 12.1769 12.8615 11.7018 11.7164 11.5587V15.7619H11.3485Z" fill="#292929"/>
</g>
</svg>
