<svg width="20" height="20" viewBox="0 0 20 20" fill="none" xmlns="http://www.w3.org/2000/svg">
<path d="M10.4174 1.25H10.4133C5.81849 1.25 2.08203 4.9875 2.08203 9.58333C2.08203 11.4062 2.66953 13.0958 3.66849 14.4677L2.62995 17.5635L5.83307 16.5396C7.15078 17.4125 8.72266 17.9167 10.4174 17.9167C15.0122 17.9167 18.7487 14.1781 18.7487 9.58333C18.7487 4.98854 15.0122 1.25 10.4174 1.25ZM15.2664 13.0177C15.0654 13.5854 14.2674 14.0562 13.631 14.1937C13.1956 14.2865 12.6268 14.3604 10.7122 13.5667C8.26328 12.5521 6.6862 10.0635 6.56328 9.90208C6.44557 9.74062 5.5737 8.58437 5.5737 7.38854C5.5737 6.19271 6.18099 5.61042 6.42578 5.36042C6.62682 5.15521 6.95911 5.06146 7.27786 5.06146C7.38099 5.06146 7.4737 5.06667 7.55703 5.07083C7.80182 5.08125 7.92474 5.09583 8.0862 5.48229C8.28724 5.96667 8.77682 7.1625 8.83516 7.28542C8.89453 7.40833 8.95391 7.575 8.87057 7.73646C8.79245 7.90312 8.7237 7.97708 8.60078 8.11875C8.47786 8.26042 8.3612 8.36875 8.23828 8.52083C8.12578 8.65312 7.9987 8.79479 8.14036 9.03958C8.28203 9.27917 8.77161 10.0781 9.49245 10.7198C10.4227 11.5479 11.1768 11.8125 11.4466 11.925C11.6477 12.0083 11.8872 11.9885 12.0341 11.8323C12.2206 11.6312 12.4508 11.2979 12.6852 10.9698C12.8518 10.7344 13.0622 10.7052 13.2831 10.7885C13.5081 10.8667 14.6987 11.4552 14.9435 11.5771C15.1883 11.7 15.3497 11.7583 15.4091 11.8615C15.4674 11.9646 15.4674 12.449 15.2664 13.0177Z" fill="#292929"/>
</svg>
